<?xml version="1.0" encoding="UTF-8" standalone="no"?>
<svg
   width="103.764"
   height="103.764"
   viewBox="0 0 103.764 103.764"
   version="1.1"
   id="svg138"
   xmlns:xlink="http://www.w3.org/1999/xlink"
   xmlns="http://www.w3.org/2000/svg"
   xmlns:svg="http://www.w3.org/2000/svg">
  <defs
     id="defs138" />
  <linearGradient
     id="c"
     x1="63.919998"
     x2="63.919998"
     y1="154.565"
     y2="-100.935"
     gradientUnits="userSpaceOnUse">
    <stop
       offset="0"
       stop-color="#fff"
       id="stop1" />
    <stop
       offset=".246"
       stop-color="#f6f6f6"
       id="stop2" />
    <stop
       offset=".637"
       stop-color="#dfdfdf"
       id="stop3" />
    <stop
       offset="1"
       stop-color="#c4c4c4"
       id="stop4" />
  </linearGradient>
  <linearGradient
     id="a">
    <stop
       offset="0"
       stop-color="#b3b3b3"
       id="stop5" />
    <stop
       offset="1"
       stop-color="#828282"
       id="stop6" />
  </linearGradient>
  <linearGradient
     id="d"
     x1="-26.333"
     x2="56.166"
     y1="-26.333"
     y2="56.166"
     gradientUnits="userSpaceOnUse"
     xlink:href="#a" />
  <linearGradient
     id="e"
     x1="43.022999"
     x2="204.007"
     y1="25.421"
     y2="111.065"
     gradientUnits="userSpaceOnUse">
    <stop
       offset="0"
       stop-color="#fff"
       id="stop7" />
    <stop
       offset=".86"
       stop-color="#dadada"
       id="stop8" />
    <stop
       offset="1"
       stop-color="#d4d4d4"
       id="stop9" />
  </linearGradient>
  <linearGradient
     id="f"
     x1="9.5640001"
     x2="117.857"
     y1="8.9329996"
     y2="12.357"
     gradientUnits="userSpaceOnUse">
    <stop
       offset="0"
       stop-color="#f93"
       id="stop10" />
    <stop
       offset="1"
       stop-color="#c63"
       id="stop11" />
  </linearGradient>
  <linearGradient
     id="g"
     x1="86.599998"
     x2="109.471"
     y1="30.614"
     y2="115.968"
     gradientUnits="userSpaceOnUse">
    <stop
       offset=".2"
       stop-color="#630"
       id="stop12" />
    <stop
       offset=".8"
       stop-color="#f93"
       id="stop13" />
  </linearGradient>
  <linearGradient
     id="h"
     x1="90.163002"
     x2="76.787003"
     y1="38.640999"
     y2="17.233999"
     gradientUnits="userSpaceOnUse">
    <stop
       offset=".31"
       stop-color="#fc0"
       id="stop14" />
    <stop
       offset=".69"
       stop-color="#ffc"
       id="stop15" />
  </linearGradient>
  <linearGradient
     id="i"
     x1="102.152"
     x2="49.118999"
     y1="31.068001"
     y2="55.798"
     gradientUnits="userSpaceOnUse">
    <stop
       offset=".1"
       stop-color="#c63"
       id="stop16" />
    <stop
       offset=".428"
       stop-color="#ff9e2e"
       id="stop17" />
    <stop
       offset=".9"
       stop-color="#fc0"
       id="stop18" />
  </linearGradient>
  <linearGradient
     id="j"
     x1="67.014"
     x2="43.716"
     y1="45.726002"
     y2="32.811001"
     gradientUnits="userSpaceOnUse">
    <stop
       offset=".4"
       stop-color="#fc0"
       id="stop19" />
    <stop
       offset=".6"
       stop-color="#ffc"
       id="stop20" />
  </linearGradient>
  <linearGradient
     id="k"
     x1="63.189999"
     x2="52.908001"
     y1="89.088997"
     y2="124.944"
     gradientUnits="userSpaceOnUse">
    <stop
       offset=".33"
       stop-color="#fc0"
       id="stop21" />
    <stop
       offset=".67"
       stop-color="#ffc"
       id="stop22" />
  </linearGradient>
  <linearGradient
     id="l"
     x1="105.186"
     x2="83.542"
     y1="82.572998"
     y2="110.277"
     gradientUnits="userSpaceOnUse">
    <stop
       offset=".21"
       stop-color="#c63"
       id="stop23" />
    <stop
       offset=".581"
       stop-color="#fc0"
       id="stop24" />
    <stop
       offset=".79"
       stop-color="#fc0"
       id="stop25" />
  </linearGradient>
  <linearGradient
     id="m"
     x1="42.275002"
     x2="32.608002"
     y1="103.268"
     y2="119.356"
     gradientUnits="userSpaceOnUse">
    <stop
       offset=".11"
       stop-color="#f93"
       id="stop26" />
    <stop
       offset=".89"
       stop-color="#fc0"
       id="stop27" />
  </linearGradient>
  <linearGradient
     id="b">
    <stop
       offset=".23"
       stop-color="#fc0"
       id="stop28" />
    <stop
       offset=".77"
       stop-color="#ff9"
       id="stop29" />
  </linearGradient>
  <linearGradient
     id="n"
     x1="56.120998"
     x2="49.443001"
     y1="47.366001"
     y2="51.539001"
     gradientUnits="userSpaceOnUse"
     xlink:href="#b" />
  <linearGradient
     id="o"
     x1="59.063"
     x2="65.595001"
     y1="37.555"
     y2="52.944"
     gradientUnits="userSpaceOnUse">
    <stop
       offset=".33"
       stop-color="#630"
       id="stop30" />
    <stop
       offset=".67"
       stop-color="#f93"
       id="stop31" />
  </linearGradient>
  <linearGradient
     id="p"
     x1="77.989998"
     x2="56.793999"
     y1="63.118"
     y2="62.748001"
     gradientUnits="userSpaceOnUse">
    <stop
       offset=".01"
       stop-color="#fc0"
       id="stop32" />
    <stop
       offset=".99"
       stop-color="#fff"
       id="stop33" />
  </linearGradient>
  <linearGradient
     id="q"
     x1="39.473"
     x2="61.585999"
     y1="50.452999"
     y2="58.067001"
     gradientUnits="userSpaceOnUse">
    <stop
       offset=".35"
       stop-color="#fc0"
       id="stop34" />
    <stop
       offset=".65"
       stop-color="#ffc"
       id="stop35" />
  </linearGradient>
  <linearGradient
     id="r"
     x1="35.77"
     x2="50.151001"
     y1="66.732002"
     y2="58.091"
     gradientUnits="userSpaceOnUse">
    <stop
       offset=".15"
       stop-color="#c63"
       id="stop36" />
    <stop
       offset=".85"
       stop-color="#fc0"
       id="stop37" />
  </linearGradient>
  <linearGradient
     id="s"
     x1="37.917"
     x2="31.528"
     y1="63.93"
     y2="67.921997"
     gradientUnits="userSpaceOnUse">
    <stop
       offset=".2"
       stop-color="#fc0"
       id="stop38" />
    <stop
       offset=".8"
       stop-color="#ffc"
       id="stop39" />
  </linearGradient>
  <linearGradient
     id="t"
     x1="61.02"
     x2="49.049"
     y1="64.494003"
     y2="73.514"
     gradientUnits="userSpaceOnUse">
    <stop
       offset=".18"
       stop-color="#fc0"
       id="stop40" />
    <stop
       offset=".474"
       stop-color="#ffffbc"
       id="stop41" />
    <stop
       offset=".82"
       stop-color="#fff"
       id="stop42" />
  </linearGradient>
  <linearGradient
     id="u"
     x1="66.128998"
     x2="42.466"
     y1="52.665001"
     y2="65.780998"
     gradientUnits="userSpaceOnUse">
    <stop
       offset=".09"
       stop-color="#f93"
       id="stop43" />
    <stop
       offset=".689"
       stop-color="#fc0"
       id="stop44" />
    <stop
       offset=".91"
       stop-color="#ffc"
       id="stop45" />
  </linearGradient>
  <linearGradient
     id="v"
     x1="70.276001"
     x2="42.577"
     y1="61.231998"
     y2="78.541"
     gradientUnits="userSpaceOnUse"
     xlink:href="#b" />
  <linearGradient
     id="w"
     x1="62.021"
     x2="31.921"
     y1="68.652"
     y2="86.030998"
     gradientUnits="userSpaceOnUse">
    <stop
       offset=".16"
       stop-color="#ff9"
       id="stop46" />
    <stop
       offset=".84"
       stop-color="#fff"
       id="stop47" />
  </linearGradient>
  <linearGradient
     id="x"
     x1="92.319"
     x2="75.220001"
     y1="40.874001"
     y2="74.432999"
     gradientUnits="userSpaceOnUse">
    <stop
       offset=".12"
       stop-color="#c63"
       id="stop48" />
    <stop
       offset=".88"
       stop-color="#f96"
       id="stop49" />
  </linearGradient>
  <linearGradient
     id="y"
     x1="86.192001"
     x2="56.383999"
     y1="74.512001"
     y2="104.32"
     gradientUnits="userSpaceOnUse">
    <stop
       offset=".28"
       stop-color="#f93"
       id="stop50" />
    <stop
       offset=".522"
       stop-color="#c63"
       id="stop51" />
    <stop
       offset=".72"
       stop-color="#fc0"
       id="stop52" />
  </linearGradient>
  <linearGradient
     id="z"
     x1="68.824997"
     x2="52.745998"
     y1="86.898003"
     y2="107.478"
     gradientUnits="userSpaceOnUse">
    <stop
       offset=".3"
       stop-color="#fc0"
       id="stop53" />
    <stop
       offset=".7"
       stop-color="#ff6"
       id="stop54" />
  </linearGradient>
  <linearGradient
     id="A"
     x1="67.630997"
     x2="63.120998"
     y1="81.572998"
     y2="107.151"
     gradientUnits="userSpaceOnUse">
    <stop
       offset=".29"
       stop-color="#f93"
       id="stop55" />
    <stop
       offset=".529"
       stop-color="#fc0"
       id="stop56" />
    <stop
       offset=".71"
       stop-color="#ffc"
       id="stop57" />
  </linearGradient>
  <linearGradient
     id="B"
     x1="48.473999"
     x2="50.558998"
     y1="102.981"
     y2="92.250999"
     gradientUnits="userSpaceOnUse">
    <stop
       offset=".27"
       stop-color="#bd8c2a"
       id="stop58" />
    <stop
       offset=".73"
       stop-color="#963"
       id="stop59" />
  </linearGradient>
  <linearGradient
     id="C"
     x1="89.023003"
     x2="90.079002"
     y1="46.027"
     y2="61.127998"
     gradientUnits="userSpaceOnUse">
    <stop
       offset=".2"
       stop-color="#f93"
       id="stop60" />
    <stop
       offset=".8"
       stop-color="#fc0"
       id="stop61" />
  </linearGradient>
  <linearGradient
     id="D"
     x1="38.164001"
     x2="31.534"
     y1="69.641998"
     y2="70.93"
     gradientUnits="userSpaceOnUse">
    <stop
       offset=".03"
       id="stop62" />
    <stop
       offset=".97"
       stop-color="#fff"
       id="stop63" />
  </linearGradient>
  <linearGradient
     id="E"
     x1="-242.444"
     x2="-258.35599"
     y1="504.27899"
     y2="505.392"
     gradientTransform="matrix(1,-0.0092,0,0.4623,296.2646,-162.1903)"
     gradientUnits="userSpaceOnUse">
    <stop
       offset=".08"
       stop-color="#fc0"
       id="stop64" />
    <stop
       offset=".92"
       stop-color="#c63"
       id="stop65" />
  </linearGradient>
  <linearGradient
     id="F"
     x1="-242.021"
     x2="-257.93301"
     y1="504.47601"
     y2="505.58801"
     gradientTransform="matrix(1,-0.1331,0,0.4623,296.438,-190.1773)"
     gradientUnits="userSpaceOnUse">
    <stop
       offset=".04"
       stop-color="#fc0"
       id="stop66" />
    <stop
       offset=".96"
       stop-color="#c63"
       id="stop67" />
  </linearGradient>
  <linearGradient
     id="G"
     x1="-242.651"
     x2="-258.565"
     y1="507.854"
     y2="508.96701"
     gradientTransform="matrix(0.8959,-0.214,0,0.4623,271.9551,-208.8036)"
     gradientUnits="userSpaceOnUse">
    <stop
       offset=".01"
       stop-color="#fc0"
       id="stop68" />
    <stop
       offset=".99"
       stop-color="#c63"
       id="stop69" />
  </linearGradient>
  <radialGradient
     id="H"
     cx="108.467"
     cy="118.249"
     r="34.736"
     gradientUnits="userSpaceOnUse">
    <stop
       offset="0"
       id="stop70" />
    <stop
       offset="1"
       id="stop71" />
  </radialGradient>
  <linearGradient
     id="I"
     x1="104.017"
     x2="95.087997"
     y1="98.181"
     y2="135.79401"
     gradientUnits="userSpaceOnUse">
    <stop
       offset="0"
       stop-color="#fff"
       id="stop72" />
    <stop
       offset="1"
       stop-color="#ccc"
       id="stop73" />
  </linearGradient>
  <linearGradient
     id="J"
     x1="82.308998"
     x2="96.103996"
     y1="88.093002"
     y2="101.888"
     gradientUnits="userSpaceOnUse"
     xlink:href="#a" />
  <g
     fill-rule="evenodd"
     clip-rule="evenodd"
     id="g133"
     transform="translate(-19.4445,-20.352)">
    <path
       fill="url(#g)"
       d="m 99.629,28.441 c 1.489,0.778 2.979,1.55 4.468,2.321 3.225,1.871 6.22,3.963 8.883,6.398 -1.094,-0.202 -2.186,-0.396 -3.277,-0.597 1.122,2.588 1.601,5.043 1.784,7.444 -0.674,-0.731 -1.323,-1.516 -2.38,-1.489 2.011,7.25 2.603,14.501 3.275,21.745 -0.896,-0.498 -1.785,-0.993 -2.68,-1.49 0.396,7.049 1.393,13.799 1.788,20.848 -1.388,-1.189 -3.376,-2.082 -4.769,-3.271 1.408,8.277 1.968,4.085 3.358,21.128 l -5.26428,-2.5274 -3.70672,11.2314 c -0.6246,2.23104 -2.093247,4.02743 -4.187,5.63128 -1.93679,1.48363 -4.222914,2.67049 -6.283,3.85072 1.489,-1.488 0.889,-4.023 2.377,-5.514 -3.276,0.793 -10.106,6.054 -6.941,-1.594 l 2.18,-79.267 5.958,-3.877 c 1.806,-0.32 3.613,-0.642 5.417,-0.971 z"
       id="path81"
       style="fill:url(#g)" />
    <path
       fill="url(#h)"
       d="m 60.133,25.524 11.304,10.349 29.807,-7.103 3.392,-1.912 -10.126,-0.127 2.741,-3.366 -11.378,1.582 1.49,-2.683 -6.6,1.268 -6.806,-2.16 -0.252,3.461 -4.811,-1.08 0.593,3.28 z"
       id="path82"
       style="fill:url(#h)" />
    <path
       fill="url(#i)"
       d="M 56.135,43.143 44.82,39.616 c 3.109,-1.583 6.217,-3.166 9.328,-4.749 -0.459,-1.066 -0.917,-2.14 -1.376,-3.213 3.464,-0.872 6.932,-1.737 10.397,-2.609 -1.224,-1.22 -2.449,-2.447 -3.671,-3.675 4.514,1.912 9.051,3.742 13.152,6.895 -0.154,-0.563 -0.308,-1.892 -0.459,-2.449 1.529,0.765 3.059,2.294 4.587,3.059 -0.255,-1.375 0.252,-3.978 0,-5.359 1.12,0.718 1.479,2.656 2.6,3.374 1.32,-3.38 3.719,-4.957 6.268,-6.285 -1.416,1.905 -2.562,4.071 -2.749,7.204 4.561,-3.91 9.402,-6.413 14.372,-8.276 -2.449,2.199 -4.893,4.393 -7.34,6.586 4.822,-1.489 9.202,-2.092 13.606,-2.757 -3.973,1.992 -7.95,3.984 -11.924,5.976 3.413,-0.69 6.218,0.691 9.632,1.228 -2.649,1.63 -4.689,2.039 -7.338,3.675 3.056,-0.945 6.113,-1.247 9.172,-0.153 -2.294,0.1 -4.538,0.456 -6.419,2.602 2.036,-0.556 4.074,0.564 6.112,2.455 -1.119,-0.1 -2.242,-0.207 -3.361,-0.308 2.568,4.749 1.872,9.497 1.834,14.246 C 92.577,55.198 83.915,53.307 75.25,51.415 71.172,49.631 67.093,47.84 63.017,46.056 60.72,45.081 58.428,44.109 56.135,43.143 Z"
       id="path83"
       style="fill:url(#i)" />
    <path
       fill="url(#j)"
       d="m 42.527,46.208 c 2.699,-0.207 5.4,0 8.105,0.611 6.318,-2.248 12.64,-4.494 18.96,-6.741 -0.875,-4.554 -2.388,-6.399 -7.035,-10.879 -3.211,0.926 -6.422,1.844 -9.633,2.763 2.419,0.175 4.458,0.483 5.657,1.067 -1.477,0.463 -2.956,0.925 -4.433,1.381 5.008,0.489 8.738,1.985 10.857,4.138 -3.721,-1.892 -8.006,-2.857 -12.999,-3.065 0.868,1.019 2.804,1.892 3.67,2.911 -2.143,-0.563 -5.354,-0.611 -7.493,-0.764 3.566,1.019 6.777,2.756 9.939,4.594 -4.105,-1.274 -8.335,-2.293 -12.844,-2.757 1.02,1.221 2.037,2.448 3.059,3.675 -2.75,0.819 -4.689,1.838 -5.81,3.066 z"
       id="path84"
       style="fill:url(#j)" />
    <path
       fill="url(#k)"
       d="m 35.972,93.013 -3.213,8.139 -0.427,5.137 3.212,7.068 6.638,1.711 0.643,5.143 6.21,-5.568 -2.356,3.854 4.925,-3.211 -2.354,5.783 6.638,-4.285 -2.569,4.07 6.852,-3.213 -2.571,3.428 7.924,-3.428 -0.643,2.783 10.495,-5.996 -0.43,6.211 8.993,-9.852 -25.269,-15.42 z"
       id="path85"
       style="fill:url(#k)" />
    <path
       fill="url(#l)"
       d="m 73.938,107.542 -7.124,12.398 6.862,-3.691 -1.321,3.691 8.44,-6.066 -2.9,6.33 8.179,-7.648 -3.165,7.648 11.605,-12.662 4.978265,5.78701 -2.551865,-10.21861 4.63094,5.66768 -2.20454,-10.09928 4.0579,4.48358 -1.6315,-8.91518 3.02152,4.7034 -0.59512,-9.135 5.8594,11.6624 -3.433,-16.094 4.224,6.068 -2.375,-14.773 -4.484,-12.657 -22.95,24.264 z"
       id="path86"
       style="fill:url(#l)" />
    <path
       fill="url(#m)"
       d="m 31.687,108.069 c 0.478,-1.562 0.692,-2.469 1.172,-4.031 -0.339,1.281 -0.679,2.559 -1.018,3.84 1.148,-1.439 2.297,-2.875 3.445,-4.309 -0.226,1.311 -0.018,2.627 0.049,3.912 2.284,-1.92 5.313,-4.914 8.566,-4.773 -2.011,3.73 -4.021,7.467 -6.031,11.199 3.196,-1.482 6.345,-3.143 9.19,-6.029 -2.091,6.557 -4.903,10.949 -8.042,14.355 -0.478,-1.146 0.751,-2.822 0.273,-3.969 -1.627,0.668 -4.831,1.732 -6.458,2.404 -0.287,-3.639 -0.705,-7.146 -0.993,-10.781 z"
       id="path87"
       style="fill:url(#m)" />
    <path
       fill="url(#n)"
       d="M 47.542,53.62 47.408,48.341 56.855,43.203 53.48,53.485 Z"
       id="path88"
       style="fill:url(#n)" />
    <path
       fill="url(#o)"
       d="m 53.075,50.776 c 0.27,-2.522 1.438,-5.044 3.509,-7.573 1.799,-1.214 3.598,-2.428 5.398,-3.648 3.412,0.281 7.003,0.376 9.987,1.08 -0.63,2.033 -1.257,4.058 -1.888,6.083 -5.67,1.355 -11.339,2.71 -17.006,4.058 z"
       id="path89"
       style="fill:url(#o)" />
    <path
       fill="url(#p)"
       d="m 61.928,74.585 -2.865,-2.871 c -0.776,-7.819 -1.551,-15.64 -2.329,-23.46 3.404,-1.254 7.289,-3.447 10.209,-3.762 2.922,-0.309 4.3,1.314 6.449,1.972 1.554,2.75 3.105,5.493 4.658,8.243 v 19.161 l -9.315,7.523 z"
       id="path90"
       style="fill:url(#p)" />
    <path
       fill="url(#q)"
       d="m 40.077,59.715 c 0.686,2.059 2.714,3.375 7.702,3.046 4.178,-1.792 8.358,-3.582 12.537,-5.373 0.061,-3.4 0.119,-6.807 0.18,-10.208 -1.196,-1.133 -2.39,-1.073 -3.582,0.181 -5.95,5.125 -11.378,8.693 -16.837,12.354 z"
       id="path91"
       style="fill:url(#q)" />
    <path
       fill="url(#r)"
       d="m 36.725,66.845 c -1.587,-0.529 -3.177,-1.059 -4.765,-1.59 2.978,-2.178 5.958,-4.365 8.935,-6.552 2.715,3.28 7.611,3.28 13.503,1.791 -5.89,2.12 -11.782,4.232 -17.673,6.351 z"
       id="path92"
       style="fill:url(#r)" />
    <path
       fill="url(#s)"
       d="m 30.171,66.247 3.972,1.793 5.163,-2.188 c -4.302,0.664 -6.221,0 -5.757,-1.985 z"
       id="path93"
       style="fill:url(#s)" />
    <path
       fill="url(#t)"
       d="m 60.142,60.206 -11.009,3.863 0.365,11.395 7.708,1.287 2.936,-2.387 z"
       id="path94"
       style="fill:url(#t)" />
    <path
       fill="url(#u)"
       d="m 35.646,67.497 c -0.343,-1.65 2.08,-2.281 3.724,-3.066 1.644,-0.784 3.793,-0.839 5.913,-1.536 2.121,-0.691 4.411,-1.489 6.791,-2.622 2.378,-1.134 6.119,-2.791 7.447,-4.165 1.326,-1.368 -0.162,-2.006 -0.657,-2.844 -0.498,-0.845 -2.048,-1.02 -2.19,-1.972 -0.145,-0.959 -0.677,-2.455 1.533,-2.408 2.21,0.04 7.691,1.22 10.076,2.622 2.384,1.409 4.491,2.958 3.286,5.258 -1.204,2.308 -4.019,3.722 -8.325,4.379 -4.306,0.657 -10.047,4.138 -12.92,7.23 -2.876,3.086 -7.323,1.463 -9.856,1.316 -2.537,-0.155 -4.477,-0.543 -4.822,-2.192 z"
       id="path95"
       style="fill:url(#u)" />
    <path
       fill="url(#v)"
       d="m 36.742,69.69 c -1.628,8.84 -0.568,9.768 6.352,16.42 4.162,-0.436 8.323,-0.875 12.483,-1.314 7.402,10.965 17.761,-9.818 11.389,-11.385 -5.196,1.318 -5.848,-0.438 -6.351,-2.631 0.803,-1.535 0.293,-2.822 2.408,-4.6 2.114,-1.77 8.055,-2.857 9.855,-5.694 1.805,-2.836 0.663,-6.237 -0.654,-8.759 -1.321,-2.522 -4.092,-4.286 -6.573,-5.037 -2.48,-0.751 -5.771,0.147 -7.228,0.878 -1.456,0.725 0.19,1.147 1.535,1.965 1.343,0.825 4.844,1.576 6.351,2.851 1.51,1.274 3.156,2.502 2.191,4.379 -0.964,1.878 -2.843,1.798 -7.229,4.379 -4.385,2.583 -3.239,9.566 -3.503,13.146 -2.849,3.428 -4.819,-2.998 -5.256,-1.1 -1.605,-1.752 0.273,-5.111 -1.534,-6.352 -1.806,-1.242 -4.261,-1.342 -6.132,-1.094 -1.872,0.248 -2.775,2.193 -4.162,3.287 -1.314,0.216 -2.628,0.437 -3.942,0.661 z"
       id="path96"
       style="fill:url(#v)" />
    <path
       fill="url(#w)"
       d="m 31.749,67.187 3.679,4.293 c 1.978,-0.475 3.952,-0.953 5.929,-1.428 -1.227,1.359 -3.028,0.254 -3.681,3.682 -1.903,9.99 12.669,10.08 13.697,10.42 2.191,-1.732 4.216,-3.549 6.336,-5.312 3.407,-2.25 6.541,-3.955 9.404,-5.107 0.919,1.695 -0.718,4.424 -7.974,9.4 -2.727,3.119 1.18,3.256 0,6.129 -1.703,-1.09 -3.407,-2.18 -5.11,-3.27 -1.839,-0.205 -3.679,-0.408 -5.519,-0.613 1.295,2.861 1.227,5.178 -0.204,6.953 -2.044,1.223 -4.087,2.449 -6.132,3.678 l -6.134,-3.475 -2.249,-4.701 1.023,-4.498 -2.248,-2.045 0.407,-6.543 z"
       id="path97"
       style="fill:url(#w)" />
    <path
       fill="url(#x)"
       d="m 75.056,69.978 c -0.42,-1.367 -0.839,-2.73 -1.262,-4.1 0.842,-2.622 1.68,-5.251 2.52,-7.872 -0.632,-2.207 -1.258,-4.414 -1.889,-6.62 -1.466,-1.891 -2.935,-3.783 -4.403,-5.674 2.203,0.846 4.403,1.684 6.606,2.522 -0.631,-0.945 -1.257,-1.891 -1.889,-2.837 2.308,1.476 4.611,2.945 6.919,4.414 -0.104,-1.362 -0.208,-2.73 -0.316,-4.099 1.469,-6.821 6.711,-6.506 15.729,0.946 2.811,5.299 2.897,11.503 3.146,17.647 -2.307,3.675 -4.614,7.349 -6.921,11.025 -4.719,0.314 -12.378,1.066 -17.097,1.381 -1.362,-2.099 0.217,-4.634 -1.143,-6.733 z"
       id="path98"
       style="fill:url(#x)" />
    <path
       fill="url(#y)"
       d="m 62.819,86.198 -8.749,6.992 -6.479,0.154 c 1.979,-2.418 1.653,-4.832 -0.976,-7.248 l 8.502,-0.213 3.844,3.264 5.528,-7.957 -1.194,-1.43 8.111,-0.715 3.815,-5.486 1.67,-5.01 H 71.88 l -4.054,3.104 4.769,-5.486 2.151,-5.009 1.426,-6.439 1.909,3.1 v -2.146 l 5.487,2.863 -0.956,-1.67 4.621,4.319 -1.995,5.701 -3.58,-5.251 -1.907,1.911 -1.67,-3.816 -3.335,4.051 2.621,5.252 -0.477,5.002 3.574,-6.914 -0.952,6.203 2.861,-3.814 1.909,3.096 3.119477,-8.31841 3.318523,2.35741 3.577,-0.477 1.67,12.398 -2.384,7.869 -0.953,10.494 -3.336,4.293 1.429,-4.77 -5.244,5.008 2.384,-3.814 -7.87,9.775 -6.678,5.486 2.146,-4.053 -7.87,7.395 1.434,-3.58 -9.78,11.447 7.87,-15.5 2.861,-19.316 z"
       id="path99"
       style="fill:url(#y)" />
    <path
       fill="url(#z)"
       d="m 43.74,95.501 c 2.068,2.854 3.181,6.904 3.339,13.592 -0.399,2.545 -0.794,5.088 -1.192,7.631 1.509,-2.781 3.02,-5.566 4.53,-8.346 0.079,1.908 0.16,3.816 0.238,5.723 2.175,-4.434 5.602,-8.83663 9.071,-11.65663 -1.241,2.736 -2.842,6.51463 -3.109,10.22563 1.115,-1.586 2.443,-2.963 4.531,-3.576 -0.471,2.471 -1.509,4.375 -2.624,6.199 2.907,-2.18 5.37,-4.805 7.631,-7.629 -0.795,1.828 -1.59,3.656 -2.386,5.484 7.702,-5.621 12.226,-10.535 17.172,-18.604 -1.19,0.719 -2.384,1.434 -3.578,2.148 v -5.725 c -0.477,1.51 -0.952,3.021 -1.428,4.533 -0.162,-1.908 -0.319,-3.816 -0.479,-5.725 -0.953,1.67 -2.066,3.182 -3.337,4.531 -0.239,-1.83 -0.477,-3.656 -0.714,-5.486 0.385,-1.756 1.26,-3.025 2.622,-3.814 0.557,-1.59 1.114,-3.178 1.67,-4.771 -0.318,-0.238 -0.639,-0.475 -0.956,-0.715 -1.109,2.234 -2.385,3.984 -3.816,5.244 -0.318,-0.633 -0.637,-1.27 -0.951,-1.902 -1.99,1.971 -3.978,2.676 -5.966,3.336 0.319,-0.953 0.636,-1.908 0.954,-2.861 -1.749,1.748 -3.497,3.498 -5.246,5.246 -1.431,1.193 -2.863,2.385 -4.292,3.578 -2.227,0.08 -4.452,0.16 -6.677,0.238 -1.906,1.274 -3.099,1.832 -5.007,3.102 z"
       id="path100"
       style="fill:url(#z)" />
    <path
       fill="url(#A)"
       d="m 50.56,92.897 c 1.658,2.287 3.124,4.961 3.249,10.32 -0.319,2.037 -0.637,4.074 -0.956,6.115 1.209,-2.229 2.42,-4.463 3.631,-6.689 0.063,1.529 0.127,3.059 0.191,4.588 1.649974,-3.3672 3.936144,-6.20788 6.879,-8.602 -0.994,2.193 -1.887,4.48 -2.103,7.453 0.894,-1.27 1.959,-2.373 3.633,-2.865 -0.378,1.979 -1.209,3.508 -2.104,4.967 2.331,-1.746 4.305,-3.852 6.115,-6.111 -0.637,1.463 -1.273,2.928 -1.912,4.395 6.172,-4.506 9.796,-8.441 13.76,-14.908 -0.951,0.574 -1.911,1.146 -2.866,1.721 v -4.588 c -0.379,1.211 -0.763,2.422 -1.145,3.633 -0.127,-1.529 -0.254,-3.059 -0.382,-4.588 -0.764,1.342 -1.657,2.551 -2.676,3.631 -0.19,-1.465 -0.382,-2.926 -0.575,-4.395 0.313,-1.406 1.011,-2.426 2.104,-3.057 0.446,-1.273 0.893,-2.549 1.339,-3.822 -0.255,-0.191 -0.511,-0.383 -0.766,-0.574 -0.892,1.791 -1.911,3.193 -3.058,4.203 -0.254,-0.506 -0.509,-1.018 -0.765,-1.525 -1.593,1.578 -3.187,2.146 -4.778,2.676 0.255,-0.766 0.51,-1.529 0.765,-2.293 -1.402,1.4 -2.803,2.803 -4.203,4.201 -1.148,0.955 -2.294,1.91 -3.44,2.867 -1.784,0.062 -3.184,1.861 -4.968,1.922 -1.529,1.021 -3.44,0.308 -4.969,1.325 z"
       id="path101"
       style="fill:url(#A)" />
    <path
       fill="url(#B)"
       d="m 43.74,95.501 c 0.317,0.713 0.636,1.432 0.954,2.145 0.159,2.066 0.317,4.137 0.476,6.201 1.273,-2.146 2.544,-3.1 3.817,-5.244 0.316,1.748 0.635,2.305 0.954,4.051 1.352,-4.293 3.655,-7.947 6.917,-10.969 -2.545,0.08 -5.089,0.16 -7.632,0.238 -1.83,1.193 -3.658,2.385 -5.486,3.578 z"
       id="path102"
       style="fill:url(#B)" />
    <path
       fill="url(#C)"
       d="m 85.643,55.866 c 1.441,2.06 3.722,6.452 6.502,5.527 2.78,-0.933 2.972,-5.923 2.763,-8.619 -0.208,-2.696 -2.286,-4.756 -3.899,-6.016 -1.617,-1.261 -3.575,-1.542 -5.041,-0.973 -1.464,0.563 -2.056,1.925 -2.112,3.736 -0.058,1.811 0.344,4.279 1.787,6.345 z"
       id="path103"
       style="fill:url(#C)" />
    <path
       d="m 29.673,65.96 c 0.517,2.549 1.284,4.855 2.163,7.043 0.061,2.709 -0.16,6.236 0.182,8.127 0.34,1.893 1.2,1.926 1.802,2.889 0,1.746 -1.375,3.328 -0.27,5.645 1.106,2.309 4.059,6.408 7.299,7.178 3.239,0.773 5.346,-3.203 8.112,-3.973 2.767,-0.768 5.024,1.189 7.392,-0.182 2.369,-1.367 3.606,-4.814 5.409,-7.225 -1.923,1.748 -3.491,4.193 -5.768,5.24 -2.278,1.047 -4.769,-0.012 -7.211,0.721 -2.443,0.734 -4.467,4.012 -7.21,3.615 -2.745,-0.398 -5.333,-3.717 -6.49,-5.602 -1.156,-1.885 -0.208,-3.604 -0.087,-4.693 0.121,-1.09 0.629,-1.205 0.81,-1.809 3.063,1.266 6.905,3.236 9.191,3.793 2.288,0.557 2.693,-0.727 4.147,-0.539 1.455,0.184 2.935,1.838 4.326,1.623 1.391,-0.215 3.826,-1.465 2.704,-2.709 -1.122,-1.242 -4.247,-1.145 -6.128,-1.084 -1.881,0.062 -2.166,2.221 -4.867,1.443 -2.704,-0.768 -7.288,-4.891 -9.554,-5.594 -2.266,-0.707 -1.203,1.383 -1.442,2.166 -0.241,-0.723 -0.631,-0.92 -0.722,-1.898 -0.092,-0.98 0.12,-3.217 0.18,-4.422 1.201,-1.385 1.502,-3.154 2.932,-4.152 1.431,-0.994 4.456,-0.355 5.361,-1.088 0.903,-0.723 0.429,-1.49 -0.182,-1.984 -0.608,-0.498 -1.698,-0.027 -2.703,-0.361 -1.006,-0.338 -3.333,-2.127 -4.86,-1.082 -1.527,1.041 -1.283,-0.662 -2.666,-0.723 2.42,-2.47 5.468,-4.207 8.609,-5.602 2.521,-1.864 5.047,-3.729 7.57,-5.593 2.942,-2.106 6.179,-3.776 8.251,-7.344 -2.704,1.945 -4.827,4.031 -7.53,5.534 0.121,-1.563 -0.621,-3.273 0.36,-4.695 0.981,-1.422 2.735,-1.596 4.867,-2.891 2.133,-1.294 5.163,-3.998 7.931,-4.876 2.768,-0.872 4.675,-0.382 6.514,-0.322 1.842,0.06 3.521,0.503 4.484,0.684 -0.964,-0.657 -1.918,-1.838 -4.339,-1.838 -2.418,0 -4.557,-1.368 -7.741,0.363 -1.739,0.938 -4.769,2.964 -7.562,4.594 -2.313,1.348 -4.47,2.334 -5.597,3.024 -2.486,1.523 0.099,3.776 -0.72,5.957 -1.023,0.302 -2.044,0.603 -3.065,0.905 0.181,0.423 0.36,0.844 0.541,1.26 -1.864,1.329 -3.727,2.655 -5.588,3.978 -4.337,2.173 -7.021,4.332 -8.835,6.499 z"
       id="path104" />
    <path
       d="m 57.642,49.823 c 0.108,1.261 -0.135,2.355 0.653,3.22 0.79,0.858 1.828,0.207 2.937,0.71 1.11,0.503 4.482,2.77 3.156,2.763 -1.326,0 -3.766,-2.092 -5.333,-1.16 -0.586,0.349 0.196,1.04 -0.212,1.482 -0.681,0.737 -2.457,1.281 -3.159,2.006 1.16,-0.094 2.369,-0.363 3.48,-0.289 1.113,0.074 1.961,0.537 3.155,0.175 1.196,-0.364 2.393,-1.289 3.59,-2.214 -1.197,-1.308 -2.425,-3.212 -3.59,-3.93 -1.163,-0.711 -2.191,0.362 -3.046,-0.141 -0.853,-0.503 -1.088,-1.75 -1.631,-2.622 z"
       id="path105" />
    <path
       d="m 80.753,50.903 c 0,-2.435 -1.286,-5.265 0,-7.304 1.28,-2.031 3.283,-3.527 6.479,-2.978 3.2,0.557 8.829,2.375 10.801,5.956 1.976,3.582 1.395,9.015 0.272,12.442 -1.128,3.433 -5.694,5.097 -7.585,7.626 1.132,-2.529 3.943,-4.828 5.694,-7.894 1.749,-3.065 1.635,-7.72 0.271,-10.818 -1.364,-3.106 -6.445,-5.386 -8.909,-5.957 -2.468,-0.563 -4.453,1.061 -5.402,2.435 -0.95,1.375 1.08,3.876 1.08,5.412 1.764,-1.998 4.485,-1.12 7.021,-0.811 -2.163,0.811 -3.601,1.261 -4.321,1.354 3.062,1.348 5.039,2.703 5.941,4.058 -1.53,-0.295 -3.062,-0.979 -4.591,0.268 -0.091,2.166 -0.181,4.326 -0.271,6.493 -1.215,-4.373 -3.106,-8.069 -6.48,-10.282 z"
       id="path106" />
    <path
       d="m 75.35,56.314 c 1.577,7.687 -1.122,11.517 -6.75,12.718 3.692,-2.443 5.941,-6.68 6.75,-12.718 z"
       id="path107" />
    <path
       d="m 77.15,66.632 c 2.436,3.861 -1.737,5.787 -10.436,6.385 5.709,-1.221 9.186,-3.354 10.436,-6.385 z"
       id="path108" />
    <path
       d="m 75.96365,68.603 c 3.289,3.158 -0.296,6.033 -8.588,8.713 5.242,-2.567 8.106,-5.467 8.588,-8.713 z"
       id="path109" />
    <path
       d="M 72.921515,77.671078 C 73.669515,81.292078 70.067,81.779 63.295,79.76 c 4.679,0.693 7.811515,-0.139922 9.626515,-2.088922 z"
       id="path110" />
    <path
       d="m 93.536,66.415 c 0.827,7.098 1.022,9.68 -3.052,15.477 0,-1.307 -0.289,-2.906 -0.872,-4.795 -0.697,4.369 -2.323,9.518 -5.453,11.992 0.218,-2.18 -0.437,-4.578 -0.219,-6.76 -1.18,3.635 -3.194,5.965 -6.755,10.248 1.596,-1.506 3.634,-1.613 5.23,-4.361 0.453,3.096 -2.1,4.471 -2.834,6.98 3.76,-2.385 7.389,-6.393 9.377,-11.121 0.066,6.207 -2.324,11.541 -5.236,16.57 3.237,-4.012 7.097,-7.096 7.852,-14.826 0.604,2.031 0.638,4.066 0.654,6.104 2.257,-3.34 2.98,-7.703 3.487,-12.211 0.604,3.031 0.641,6.631 0.658,10.25 1.815,-6.127 3.916,-12.074 3.923,-19.408 1.015,0.584 1.739,1.744 2.18,3.494 3.309,-8.135 6.378,-19.624 -3.706,-23.547 0.433,6.68 -1.018,12.132 -5.234,15.914 z"
       id="path111" />
    <path
       d="m 80.022,97.476 c -1.349,6.697 -5.561,7.791 -10.917,8.551 2.61,-1.202 7.269,-3.331 10.917,-8.551 z"
       id="path112" />
    <path
       d="m 85.688,92.896 c -1.348,6.695 -5.556,7.789 -10.912,8.555 2.609,-1.208 7.264,-3.335 10.912,-8.555 z"
       id="path113" />
    <path
       d="m 83.728,100.964 c -1.349,6.697 -5.558,7.791 -10.916,8.551 2.612,-1.205 7.267,-3.33 10.916,-8.551 z"
       id="path114" />
    <path
       d="m 98.073,90.853 c 1.02,6.754 -2.562,9.223 -7.338,11.768 2.042,-2.026 5.691,-5.614 7.338,-11.768 z"
       id="path115" />
    <path
       d="m 86.081,102.845 c 1.021,6.754 -2.562,9.223 -7.338,11.768 2.043,-2.026 5.692,-5.616 7.338,-11.768 z"
       id="path116" />
    <path
       d="m 47.53,41.97 c 3.097,-2.308 7.706,-1.402 7.052,2.421 C 53.035,42.7 50.684,41.896 47.53,41.97 Z"
       id="path117" />
    <path
       d="m 49.334,44.049 c 1.838,-1.368 4.572,-0.832 4.184,1.435 -0.917,-1.006 -2.312,-1.483 -4.184,-1.435 z"
       id="path118" />
    <path
       d="m 67.047,29.454 c 2.897,2.475 4.93,9.168 2.565,10.952 0.044,-3.205 -0.811,-6.854 -2.565,-10.952 z"
       id="path119" />
    <path
       d="m 72.06404,32.438 c 1.928,3.287 1.657,10.275 -1.164,11.187 1.098,-3.01 1.483,-6.74 1.164,-11.187 z"
       id="path120" />
    <path
       d="m 77.661,39.28 c -3.759,0.617 -8.958,5.298 -7.857,8.048 1.616,-2.763 4.235,-5.453 7.857,-8.048 z"
       id="path121" />
    <path
       d="m 79.706,43.599 c -3.472,-0.57 -9.392,1.986 -9.245,4.715 2.23,-1.938 5.312,-3.515 9.245,-4.715 z"
       id="path122" />
    <path
       d="m 85.598,25.786 c 1.577,7.686 -1.122,11.522 -6.75,12.716 3.692,-2.435 5.943,-6.673 6.75,-12.716 z"
       id="path123" />
    <path
       d="m 101.6435,34.866418 c -6.228,-4.775 -10.854,-4.018 -14.386,0.523 3.803,-2.26 8.599,-2.435 14.386,-0.523 z"
       id="path124" />
    <path
       fill="url(#D)"
       d="m 31.561,68.315 c 0.278,1.695 0.696,3.365 1.614,4.908 0.298,-0.598 1.016,-1.201 1.315,-1.797 -1.436,0.039 -1.181,-1.322 -0.956,-1.857 0.223,-0.529 0.763,-0.779 1.553,-0.779 0.792,0 2.054,0.637 3.11,0.779 0.079,-0.678 -0.857,-1.719 -2.212,-1.92 -3.038,0.383 -4.051,0.282 -4.424,0.666 z"
       id="path125"
       style="fill:url(#D)" />
    <path
       d="m 35.117,91.694 c -1.569,1.121 -2.5,2.881 -2.795,5.279 0.951,-0.484 1.1,-1.852 2.388,-1.65 -2.311,2.43 -3.211,6.623 -4.872,10.033 0.725,-0.926 1.434,-1.914 2.483,-1.861 -2.357,3.316 -2.007,7.723 -2.483,11.797 0.621,-1.791 1.245,-3.508 1.863,-4.656 -0.351,3.875 0.573,7.33 1.243,10.867 -0.314,-4.621 -0.362,-8.633 -0.304,-11.988 0.03,-1.66 3.94,-7.281 3.91,-7.395 -1.125667,0.33733 -3.842177,2.74807 -3.377,1.012 1.065,-4.787 2.188,-7.471 4.117,-8.643 -0.724,-0.929 -1.449,-1.863 -2.173,-2.795 z"
       id="path126" />
    <path
       d="m 50.511,46.584 c -1.977,-0.771 -4.244,-0.805 -6.223,-0.812 0.862,-1.53 2.677,-2.052 4.302,-2.435 -0.491,-1.717 -1.507,-2.917 -2.761,-3.877 2.568,-1.757 5.801,-3.414 9.13,-4.406 -0.007,-1.509 -1.155,-1.724 -1.445,-2.804 2.81,-1.475 7.413,-1.952 11.209,-2.864 -0.902,-1.086 -2.134,-2.266 -3.414,-2.971 3.443,-0.295 6.379,1.368 9.417,2.287 -0.271,-1.381 -0.638,-2.763 -1.667,-4.151 2.123,0.282 4.252,1.066 6.382,1.75 -0.164,-1.368 -0.376,-2.729 -0.921,-4.097 2.297,0.201 4.047,1.194 5.968,2.542 1.886,-0.953 3.77,-2.052 5.653,-1.858 -0.716,0.764 -1.384,1.824 -1.716,2.588 3.568,-0.65 7.562,-1.207 11.13,-1.1 -0.862,0.825 -2.153,2.361 -3.016,3.179 3.103,0.134 6.49,-1.301 9.593,-0.174 -0.828,0.543 -1.94,1.086 -2.764,1.623 4.632,2.072 8.971,4.742 13.227,7.572 -3.116,-2.736 -5.927,-5.782 -10.26,-7.297 1.352,-0.906 2.7,-1.805 4.053,-2.703 -3.025,-0.49 -5.748,-1.274 -9.991,-0.543 1.023,-1.322 2.376,-2.307 3.779,-3.246 -4.131,0.08 -7.978,-0.422 -12.955,1.354 0.617,-1.476 2.02,-2.689 3.78,-3.789 -3.33,0.57 -6.66,0.952 -9.99,2.703 -2.317,-1.281 -5.017,-2.179 -8.096,-2.703 0.306,1.368 0.912,2.83 0,3.789 -1.688,-0.832 -3.76,-1.288 -6.21,-1.354 0.922,1.308 1.747,2.608 1.905,3.911 -3.793,-1.081 -7.542,-2.241 -12.112,-2.16 1.876,1.06 4.157,1.811 4.411,4.091 -3.232,0.972 -6.468,1.75 -9.701,3.179 0.705,0.885 1.409,1.77 2.112,2.655 -4.094,1.027 -6.667,3.065 -9.542,4.896 1.122,0.892 2.246,1.489 3.367,3.595 -2.467,0.611 -4.709,1.897 -6.797,3.642 2.81,0.141 5.624,-0.309 8.431,1.18 0.577,-0.394 1.155,-0.797 1.732,-1.192 z"
       id="path127" />
    <path
       fill="#ffffcc"
       d="m 49.951,37.637 c 1.921,-1.073 4.877,-1.114 9.483,2.515 -3.276,0.007 -6.136,-2.18 -9.483,-2.515 z"
       id="path128" />
    <path
       fill="#ffffcc"
       d="m 73.398,40.796 c 0.711,-2.791 3.205,-6.097 10.305,-8.987 -2.799,3.634 -7.152,5.472 -10.305,8.987 z"
       id="path129" />
    <path
       fill="#ffffcc"
       d="m 73.097,44.538 c 0.888,-2.548 3.998,-5.009 12.846,-5.493 -3.49,2.689 -8.913,3.052 -12.846,5.493 z"
       id="path130" />
    <path
       fill="url(#E)"
       d="m 53.689,74.786 c -1.641,0.416 -3.703,0.678 -5.94,0.697 -5.334,0.047 -9.685,-1.281 -9.685,-2.957 0,-0.268 0.113,-0.531 0.324,-0.779 -0.007,0.041 -0.01,0.088 -0.01,0.135 0,1.678 4.349,3.004 9.685,2.959 1.146,-0.012 2.25,-0.086 3.273,-0.209 0.757,0.062 1.544,0.117 2.353,0.154 z"
       id="path131"
       style="fill:url(#E)" />
    <path
       fill="url(#F)"
       d="m 54.286,76.888 c -1.642,0.621 -3.705,1.137 -5.941,1.438 -5.334,0.707 -9.685,-0.082 -9.685,-1.758 0,-0.271 0.112,-0.547 0.323,-0.826 -0.007,0.049 -0.009,0.094 -0.009,0.141 0,1.678 4.349,2.469 9.684,1.76 1.147,-0.156 2.25,-0.367 3.273,-0.617 0.758,-0.031 1.545,-0.074 2.355,-0.138 z"
       id="path132"
       style="fill:url(#F)" />
    <path
       fill="url(#G)"
       d="m 54.446,79.552 c -1.47,0.754 -3.318,1.434 -5.322,1.912 -4.779,1.143 -8.678,0.703 -8.678,-0.973 0,-0.27 0.101,-0.557 0.291,-0.85 -0.007,0.047 -0.008,0.094 -0.008,0.143 0,1.676 3.896,2.115 8.675,0.973 1.027,-0.248 2.017,-0.545 2.932,-0.881 0.68,-0.09 1.384,-0.197 2.11,-0.324 z"
       id="path133"
       style="fill:url(#G)" />
  </g>
</svg>
